<?xml version="1.0" encoding="iso-8859-1"?>
<!-- Generator: Adobe Illustrator 18.0.0, SVG Export Plug-In . SVG Version: 6.00 Build 0)  -->
<!DOCTYPE svg PUBLIC "-//W3C//DTD SVG 1.1//EN" "http://www.w3.org/Graphics/SVG/1.1/DTD/svg11.dtd">
<svg version="1.1" id="Capa_1" xmlns="http://www.w3.org/2000/svg" xmlns:xlink="http://www.w3.org/1999/xlink" x="0px" y="0px"
	 viewBox="0 0 480.33 480.33" style="enable-background:new 0 0 480.33 480.33;" xml:space="preserve">
<g>
	<g id="XMLID_20_">
		<g>
			<path d="M480.08,437.475v27.14c0,2.21-1.79,4-4,4H4.25c-2.21,0-4-1.79-4-4v-27.14c0-0.01,0-0.03,0-0.04v-317.3c0-2.2,1.79-4,4-4
				h6.59v-16.54c0-6.56,5.55-12.18,14.67-15.11v-9.13c0-5.27,5.89-9.24,13.69-9.24c7.81,0,13.7,3.97,13.7,9.24v9.13
				c9.12,2.92,14.66,8.54,14.66,15.11v16.54h2.05l0.01-100.42c0-2.21,1.79-4,4-4H413.1c2.21,0,4,1.79,4,4v100.42h5.85l-2.16-19.48
				c-0.12-1.13,0.24-2.26,1-3.11c0.76-0.84,1.84-1.33,2.98-1.33h43.44c1.14,0,2.22,0.49,2.98,1.33c0.76,0.85,1.12,1.98,1,3.11
				l-2.16,19.48h6.05c2.21,0,4,1.8,4,4v317.33C480.08,437.475,480.08,437.475,480.08,437.475z M472.08,460.615v-19.14H8.25v19.14
				H472.08z M472.08,433.475v-309.34h-2.94l-2.52,22.83v11.29c0,7.25-8.66,12.71-20.13,12.71c-11.48,0-20.13-5.46-20.13-12.71
				v-11.29l-2.53-22.83h-6.73v150.27h3.43c1.6-8.2,10.86-14.31,22.4-14.31c12.7,0,22.64,7.4,22.64,16.85
				c0,9.44-9.94,16.84-22.64,16.84c-10.11,0-18.47-4.69-21.46-11.38h-8.42v11.8c8.3,5.9,14.57,16.7,17.28,29.74h30.48
				c1.14,0,2.22,0.48,2.98,1.33c0.76,0.85,1.12,1.98,0.99,3.11l-5.56,50.3v11.19c0,7.25-8.66,12.72-20.13,12.72
				c-11.48,0-20.13-5.47-20.13-12.72v-11.19l-2.05-18.49c-5.41,2.77-11.82,4.29-18.39,4.29c-0.85,0-1.7-0.03-2.54-0.08l-3.43,30.95
				v11.19c0,7.25-8.65,12.72-20.13,12.72c-11.47,0-20.13-5.47-20.13-12.72v-11.19l-5.57-50.3c-0.12-1.13,0.24-2.26,1-3.11
				s1.84-1.33,2.98-1.33h14.62c-0.06-0.66-0.1-1.33-0.1-2c0-19.18,7.3-36.28,18.77-44.4v-14.76h-21.14
				c1.36,1.85,2.11,3.93,2.11,6.16v13.87c0,8.06-9.79,14.15-22.78,14.15c-12.99,0-22.78-6.09-22.78-14.15v-13.87
				c0-2.23,0.75-4.31,2.11-6.16h-57.12c0.91,1.5,1.43,3.15,1.43,4.9v12.15c0,7.35-8.8,12.89-20.46,12.89
				c-11.66,0-20.45-5.54-20.45-12.89v-12.15c0-1.75,0.51-3.4,1.43-4.9h-11.67c0.13,0.68,0.21,1.37,0.21,2.08v16.47
				c0,9.16-11.32,16.06-26.32,16.06s-26.32-6.9-26.32-16.06v-16.47c0-0.71,0.08-1.4,0.21-2.08H73.61c-2.21,0-4-1.79-4-4v-151.32
				h-2.05v147.73c0,9.63-12.45,17.17-28.36,17.17c-15.9,0-28.36-7.54-28.36-17.17v-147.73H8.25v309.34H472.08z M458.62,146.745
				l5.12-46.53h-34.51l5.13,46.53c0,1.62,4.72,4.72,12.13,4.72C453.89,151.465,458.62,148.365,458.62,146.745z M458.62,158.255
				v-1.24c-3.33,1.54-7.49,2.45-12.13,2.45c-4.64,0-8.8-0.91-12.13-2.45v1.24c0,1.62,4.72,4.71,12.13,4.71
				C453.89,162.965,458.62,159.875,458.62,158.255z M451.22,378.475l5.12-46.53h-34.51l5.13,46.53c0,1.62,4.72,4.71,12.13,4.71
				C446.49,383.185,451.22,380.095,451.22,378.475z M457.57,276.945c0-4.71-6.84-8.85-14.64-8.85c-7.8,0-14.65,4.14-14.65,8.85
				c0,4.71,6.85,8.84,14.65,8.84C450.73,285.785,457.57,281.655,457.57,276.945z M451.22,389.875v-1.13
				c-3.34,1.54-7.5,2.44-12.13,2.44c-4.64,0-8.8-0.9-12.13-2.44v1.13c0,1.62,4.72,4.72,12.13,4.72
				C446.49,394.595,451.22,391.495,451.22,389.875z M417.37,323.945h4.76c-2-8.33-5.69-15.53-10.37-20.33
				c-2.24,3.35-7.19,5.58-13.24,5.58c-6.05,0-11-2.23-13.24-5.58c-7.37,7.48-12.06,20.67-12.06,35c0,0.67,0.07,1.34,0.17,2h20.75
				c1.14,0,2.22,0.48,2.98,1.33s1.12,1.98,1,3.11l-1.26,11.37c0.55,0.03,1.1,0.06,1.66,0.06c6.5,0,12.72-1.8,17.43-4.98l-2.56-23.12
				c-0.13-1.13,0.24-2.26,1-3.11C415.14,324.425,416.23,323.945,417.37,323.945z M409.1,267.215V33.665H77.61v237.79h90.15
				c4.74-3.69,12.15-5.99,20.8-5.99c8.65,0,16.06,2.3,20.8,5.99h175.1c1.59-4.22,7.1-7.16,14.06-7.16
				C402.78,264.295,406.49,265.395,409.1,267.215z M409.1,25.655v-5.94H77.62v5.94H409.1z M405.05,299.285v-25.09
				c-0.49-0.63-2.8-1.9-6.53-1.9c-3.73,0-6.04,1.27-6.53,1.9v25.09c0.49,0.63,2.8,1.91,6.53,1.91
				C402.25,301.195,404.56,299.915,405.05,299.285z M384.55,395.135l5.13-46.52h-34.51l5.12,46.52c0,1.62,4.73,4.72,12.13,4.72
				C379.83,399.855,384.55,396.755,384.55,395.135z M384.55,406.545v-1.14c-3.33,1.55-7.49,2.45-12.13,2.45
				c-4.64,0-8.8-0.9-12.13-2.45v1.14c0,1.62,4.73,4.72,12.13,4.72C379.83,411.265,384.55,408.165,384.55,406.545z M356.96,299.485
				v-2.94c-3.92,2.03-9.04,3.22-14.78,3.22c-5.74,0-10.86-1.19-14.78-3.22v2.94c0,2.44,5.89,6.15,14.78,6.15
				C351.07,305.635,356.96,301.925,356.96,299.485z M356.96,285.615c0-2.45-5.89-6.16-14.78-6.16c-8.89,0-14.78,3.71-14.78,6.16
				c0,2.45,5.89,6.15,14.78,6.15C351.07,291.765,356.96,288.065,356.96,285.615z M257.82,296.505v-1.8
				c-3.41,1.6-7.68,2.54-12.46,2.54c-4.77,0-9.04-0.94-12.45-2.54v1.8c0,1.72,4.73,4.89,12.45,4.89
				C253.09,301.395,257.82,298.225,257.82,296.505z M257.82,284.355c0-1.73-4.73-4.9-12.46-4.9c-7.72,0-12.45,3.17-12.45,4.9
				c0,1.72,4.73,4.89,12.45,4.89C253.09,289.245,257.82,286.075,257.82,284.355z M206.88,298.005v-4.74
				c-4.67,2.71-11.06,4.33-18.32,4.33c-7.26,0-13.65-1.62-18.32-4.33v4.74c0,3.29,7.14,8.06,18.32,8.06
				C199.74,306.065,206.88,301.295,206.88,298.005z M206.88,281.535c0-3.29-7.14-8.07-18.32-8.07c-11.18,0-18.32,4.78-18.32,8.07
				c0,4.92,10.85,8.06,18.32,8.06S206.88,286.455,206.88,281.535z M59.56,271.865v-59c0-2.33-2.62-4.8-6.66-6.57v0.6
				c0,5.26-5.89,9.24-13.7,9.24c-7.8,0-13.69-3.98-13.69-9.24v-0.6c-4.04,1.77-6.67,4.24-6.67,6.57v59c0,4.33,8.71,9.17,20.36,9.17
				C50.86,281.035,59.56,276.195,59.56,271.865z M59.56,200.735v-47.45c0-2.32-2.62-4.79-6.66-6.56v0.6c0,5.26-5.89,9.24-13.7,9.24
				c-7.8,0-13.69-3.98-13.69-9.24v-0.61c-4.04,1.78-6.67,4.25-6.67,6.57v47.45c1.93-1.17,4.16-2.18,6.67-2.99v-9.12
				c0-5.27,5.89-9.24,13.69-9.24c7.81,0,13.7,3.97,13.7,9.24v9.13C55.41,198.555,57.64,199.565,59.56,200.735z M59.56,141.165
				v-41.57c0-2.32-2.62-4.79-6.66-6.56v0.59c0,5.27-5.89,9.24-13.7,9.24c-7.8,0-13.69-3.97-13.69-9.24v-0.6
				c-4.04,1.78-6.67,4.25-6.67,6.57v41.57c1.93-1.18,4.16-2.19,6.67-2.99v-9.12c0-5.27,5.89-9.24,13.69-9.24
				c7.81,0,13.7,3.97,13.7,9.24v9.12C55.41,138.985,57.64,139.985,59.56,141.165z M44.9,206.565v-17.62
				c-0.51-0.5-2.44-1.56-5.7-1.56c-3.25,0-5.18,1.06-5.69,1.56v17.62c0.51,0.51,2.44,1.57,5.69,1.57
				C42.46,208.135,44.39,207.075,44.9,206.565z M44.9,146.995v-17.62c-0.51-0.51-2.44-1.56-5.7-1.56c-3.25,0-5.18,1.05-5.69,1.56
				v17.62c0.51,0.51,2.44,1.57,5.69,1.57C42.46,148.565,44.39,147.505,44.9,146.995z M44.9,93.305v-17.63
				c-0.51-0.5-2.44-1.56-5.7-1.56c-3.25,0-5.18,1.06-5.69,1.56v17.63c0.51,0.5,2.44,1.56,5.69,1.56
				C42.46,94.865,44.39,93.805,44.9,93.305z"/>
			<rect x="8.25" y="441.475" style="fill:#CC71CA;" width="463.83" height="19.14"/>
			<path style="fill:#F4C6F4;" d="M472.08,124.135v309.34H8.25v-309.34h2.59v147.73c0,9.63,12.46,17.17,28.36,17.17
				c15.91,0,28.36-7.54,28.36-17.17v-147.73h2.05v151.32c0,2.21,1.79,4,4,4h88.84c-0.13,0.68-0.21,1.37-0.21,2.08v16.47
				c0,9.16,11.32,16.06,26.32,16.06s26.32-6.9,26.32-16.06v-16.47c0-0.71-0.08-1.4-0.21-2.08h11.67c-0.92,1.5-1.43,3.15-1.43,4.9
				v12.15c0,7.35,8.79,12.89,20.45,12.89c11.66,0,20.46-5.54,20.46-12.89v-12.15c0-1.75-0.52-3.4-1.43-4.9h57.12
				c-1.36,1.85-2.11,3.93-2.11,6.16v13.87c0,8.06,9.79,14.15,22.78,14.15c12.99,0,22.78-6.09,22.78-14.15v-13.87
				c0-2.23-0.75-4.31-2.11-6.16h21.14v14.76c-11.47,8.12-18.77,25.22-18.77,44.4c0,0.67,0.04,1.34,0.1,2H350.7
				c-1.14,0-2.22,0.48-2.98,1.33s-1.12,1.98-1,3.11l5.57,50.3v11.19c0,7.25,8.66,12.72,20.13,12.72c11.48,0,20.13-5.47,20.13-12.72
				v-11.19l3.43-30.95c0.84,0.05,1.69,0.08,2.54,0.08c6.57,0,12.98-1.52,18.39-4.29l2.05,18.49v11.19c0,7.25,8.65,12.72,20.13,12.72
				c11.47,0,20.13-5.47,20.13-12.72v-11.19l5.56-50.3c0.13-1.13-0.23-2.26-0.99-3.11c-0.76-0.85-1.84-1.33-2.98-1.33h-30.48
				c-2.71-13.04-8.98-23.84-17.28-29.74v-11.8h8.42c2.99,6.69,11.35,11.38,21.46,11.38c12.7,0,22.64-7.4,22.64-16.84
				c0-9.45-9.94-16.85-22.64-16.85c-11.54,0-20.8,6.11-22.4,14.31h-3.43v-150.27h6.73l2.53,22.83v11.29
				c0,7.25,8.65,12.71,20.13,12.71c11.47,0,20.13-5.46,20.13-12.71v-11.29l2.52-22.83H472.08z M465.86,244.955v-63.34
				c0-2.2-1.79-4-4-4h-35.33c-2.21,0-4,1.8-4,4v63.34c0,2.21,1.79,4,4,4h35.33C464.07,248.955,465.86,247.165,465.86,244.955z
				 M451.86,409.615c0-2.2-1.79-4-4-4h-43.33c-2.21,0-4,1.8-4,4c0,2.21,1.79,4,4,4h43.33
				C450.07,413.615,451.86,411.825,451.86,409.615z M451.86,422.285c0-2.21-1.79-4-4-4h-43.33c-2.21,0-4,1.79-4,4s1.79,4,4,4h43.33
				C450.07,426.285,451.86,424.495,451.86,422.285z M334.53,420.285v-96.89c0-2.21-1.79-4-4-4H137.86c-2.21,0-4,1.79-4,4v96.89
				c0,2.21,1.79,4,4,4h192.67C332.74,424.285,334.53,422.495,334.53,420.285z M312.63,305.855v-12.15c0-7.35-8.79-12.89-20.45-12.89
				s-20.45,5.54-20.45,12.89v12.15c0,7.35,8.79,12.89,20.45,12.89S312.63,313.205,312.63,305.855z M129.5,313.455v-16.48
				c0-9.15-11.31-16.06-26.31-16.06c-15.01,0-26.32,6.91-26.32,16.06c0,0.02,0,16.48,0,16.48c0,1.06,0.18,2.09,0.48,3.1
				c-1.1,0.24-2.16,0.52-3.18,0.83v-8.41c0-9.15-11.31-16.06-26.32-16.06c-15,0-26.31,6.91-26.31,16.06
				c0,0.01-0.01,16.48-0.01,16.48c0,9.16,11.32,16.06,26.32,16.06c4.41,0,8.64-0.63,12.37-1.79v8.43c0,9.17,11.31,16.07,26.31,16.07
				c2.26,0,4.45-0.17,6.58-0.49v41.68c0,5.16,5.72,9.04,13.31,9.04c7.6,0,13.32-3.88,13.32-9.04v-49.04c0-3.55-2.72-6.5-6.9-7.99
				c0-0.08,0.01-0.15,0.01-0.23v-16.47c0-1.08-0.16-2.12-0.46-3.13C122.61,326.335,129.5,320.505,129.5,313.455z M63.81,413.285
				v-49.04c0-5.15-5.72-9.04-13.31-9.04c-1.92,0-3.71,0.25-5.32,0.7v-5c0-5.15-5.73-9.03-13.32-9.03s-13.32,3.88-13.32,9.03v49.05
				c0,5.15,5.73,9.03,13.32,9.03c1.91,0,3.7-0.24,5.32-0.69v4.99c0,5.15,5.72,9.04,13.32,9.04
				C58.09,422.325,63.81,418.435,63.81,413.285z"/>
			<path d="M465.86,181.615v63.34c0,2.21-1.79,4-4,4h-35.33c-2.21,0-4-1.79-4-4v-63.34c0-2.2,1.79-4,4-4h35.33
				C464.07,177.615,465.86,179.415,465.86,181.615z M457.86,240.955v-7.34h-27.33v7.34H457.86z M457.86,225.615v-40h-9.67v40H457.86
				z M440.19,225.615v-40h-9.66v40H440.19z"/>
			<path style="fill:#29ABE2;" d="M463.74,100.215l-5.12,46.53c0,1.62-4.73,4.72-12.13,4.72c-7.41,0-12.13-3.1-12.13-4.72
				l-5.13-46.53H463.74z"/>
			<path style="fill:#CC71CA;" d="M458.62,157.015v1.24c0,1.62-4.73,4.71-12.13,4.71c-7.41,0-12.13-3.09-12.13-4.71v-1.24
				c3.33,1.54,7.49,2.45,12.13,2.45C451.13,159.465,455.29,158.555,458.62,157.015z"/>
			<rect x="430.53" y="233.615" style="fill:#B3B3B3;" width="27.33" height="7.34"/>
			<rect x="448.19" y="185.615" style="fill:#CC71CA;" width="9.67" height="40"/>
			<path style="fill:#29ABE2;" d="M456.34,331.945l-5.12,46.53c0,1.62-4.73,4.71-12.13,4.71c-7.41,0-12.13-3.09-12.13-4.71
				l-5.13-46.53H456.34z"/>
			<path style="fill:#CC71CA;" d="M442.93,268.095c7.8,0,14.64,4.14,14.64,8.85c0,4.71-6.84,8.84-14.64,8.84
				c-7.8,0-14.65-4.13-14.65-8.84C428.28,272.235,435.13,268.095,442.93,268.095z"/>
			<path style="fill:#CC71CA;" d="M451.22,388.745v1.13c0,1.62-4.73,4.72-12.13,4.72c-7.41,0-12.13-3.1-12.13-4.72v-1.13
				c3.33,1.54,7.49,2.44,12.13,2.44C443.72,391.185,447.88,390.285,451.22,388.745z"/>
			<path d="M447.86,405.615c2.21,0,4,1.8,4,4c0,2.21-1.79,4-4,4h-43.33c-2.21,0-4-1.79-4-4c0-2.2,1.79-4,4-4H447.86z"/>
			<path d="M447.86,418.285c2.21,0,4,1.79,4,4s-1.79,4-4,4h-43.33c-2.21,0-4-1.79-4-4s1.79-4,4-4H447.86z"/>
			<rect x="430.53" y="185.615" style="fill:#F9F1A5;" width="9.66" height="40"/>
			<path style="fill:#F9F1A5;" d="M422.13,323.945h-4.76c-1.14,0-2.23,0.48-2.98,1.33c-0.76,0.85-1.13,1.98-1,3.11l2.56,23.12
				c-4.71,3.18-10.93,4.98-17.43,4.98c-0.56,0-1.11-0.03-1.66-0.06l1.26-11.37c0.12-1.13-0.24-2.26-1-3.11s-1.84-1.33-2.98-1.33
				h-20.75c-0.1-0.66-0.17-1.33-0.17-2c0-14.33,4.69-27.52,12.06-35c2.24,3.35,7.19,5.58,13.24,5.58c6.05,0,11-2.23,13.24-5.58
				C416.44,308.415,420.13,315.615,422.13,323.945z"/>
			<path style="fill:#CC71CA;" d="M409.1,33.665v233.55c-2.61-1.82-6.32-2.92-10.58-2.92c-6.96,0-12.47,2.94-14.06,7.16h-175.1
				c-4.74-3.69-12.15-5.99-20.8-5.99c-8.65,0-16.06,2.3-20.8,5.99H77.61V33.665H409.1z M404.55,55.455
				c0-8.94-7.27-16.21-16.21-16.21c-8.95,0-16.22,7.27-16.22,16.21c0,8.95,7.27,16.22,16.22,16.22
				C397.28,71.675,404.55,64.405,404.55,55.455z M404.55,103.575c0-8.94-7.27-16.21-16.21-16.21c-8.95,0-16.22,7.27-16.22,16.21
				c0,8.95,7.27,16.22,16.22,16.22C397.28,119.795,404.55,112.525,404.55,103.575z M404.55,151.695c0-8.94-7.27-16.22-16.21-16.22
				c-8.95,0-16.22,7.28-16.22,16.22c0,8.94,7.27,16.22,16.22,16.22C397.28,167.915,404.55,160.635,404.55,151.695z M404.55,199.815
				c0-8.94-7.27-16.22-16.21-16.22c-8.95,0-16.22,7.28-16.22,16.22s7.27,16.22,16.22,16.22
				C397.28,216.035,404.55,208.755,404.55,199.815z M404.55,247.935c0-8.94-7.27-16.22-16.21-16.22c-8.95,0-16.22,7.28-16.22,16.22
				s7.27,16.22,16.22,16.22C397.28,264.155,404.55,256.875,404.55,247.935z M367.58,256.955V81.815c0-2.21-1.79-4-4-4H123.15
				c-2.21,0-4,1.79-4,4v175.14c0,2.21,1.79,4,4,4h240.43C365.79,260.955,367.58,259.165,367.58,256.955z M355.9,55.455
				c0-8.94-7.28-16.21-16.22-16.21s-16.22,7.27-16.22,16.21c0,8.95,7.28,16.22,16.22,16.22S355.9,64.405,355.9,55.455z
				 M307.78,55.455c0-8.94-7.28-16.21-16.22-16.21s-16.22,7.27-16.22,16.21c0,8.95,7.28,16.22,16.22,16.22
				S307.78,64.405,307.78,55.455z M259.66,55.455c0-8.94-7.28-16.21-16.22-16.21s-16.22,7.27-16.22,16.21
				c0,8.95,7.28,16.22,16.22,16.22S259.66,64.405,259.66,55.455z M211.54,55.455c0-8.94-7.28-16.21-16.22-16.21
				c-8.94,0-16.21,7.27-16.21,16.21c0,8.95,7.27,16.22,16.21,16.22C204.26,71.675,211.54,64.405,211.54,55.455z M163.42,55.455
				c0-8.94-7.27-16.21-16.22-16.21c-8.94,0-16.21,7.27-16.21,16.21c0,8.95,7.27,16.22,16.21,16.22
				C156.15,71.675,163.42,64.405,163.42,55.455z M114.6,55.455c0-8.94-7.28-16.21-16.22-16.21s-16.22,7.27-16.22,16.21
				c0,8.95,7.28,16.22,16.22,16.22S114.6,64.405,114.6,55.455z M114.6,103.575c0-8.94-7.28-16.21-16.22-16.21
				s-16.22,7.27-16.22,16.21c0,8.95,7.28,16.22,16.22,16.22S114.6,112.525,114.6,103.575z M114.6,151.695
				c0-8.94-7.28-16.22-16.22-16.22s-16.22,7.28-16.22,16.22c0,8.94,7.28,16.22,16.22,16.22S114.6,160.635,114.6,151.695z
				 M114.6,199.815c0-8.94-7.28-16.22-16.22-16.22s-16.22,7.28-16.22,16.22s7.28,16.22,16.22,16.22S114.6,208.755,114.6,199.815z
				 M114.6,247.935c0-8.94-7.28-16.22-16.22-16.22s-16.22,7.28-16.22,16.22s7.28,16.22,16.22,16.22S114.6,256.875,114.6,247.935z"/>
			<rect x="77.62" y="19.715" style="fill:#AF5BAF;" width="331.48" height="5.94"/>
			<path style="fill:#29ABE2;" d="M405.05,274.195v25.09c-0.49,0.63-2.8,1.91-6.53,1.91c-3.73,0-6.04-1.28-6.53-1.91v-25.09
				c0.49-0.63,2.8-1.9,6.53-1.9C402.25,272.295,404.56,273.565,405.05,274.195z"/>
			<path d="M388.34,39.245c8.94,0,16.21,7.27,16.21,16.21c0,8.95-7.27,16.22-16.21,16.22c-8.95,0-16.22-7.27-16.22-16.22
				C372.12,46.515,379.39,39.245,388.34,39.245z M396.55,55.455c0-4.53-3.68-8.21-8.21-8.21s-8.22,3.68-8.22,8.21
				c0,4.54,3.69,8.22,8.22,8.22S396.55,59.995,396.55,55.455z"/>
			<path d="M388.34,87.365c8.94,0,16.21,7.27,16.21,16.21c0,8.95-7.27,16.22-16.21,16.22c-8.95,0-16.22-7.27-16.22-16.22
				C372.12,94.635,379.39,87.365,388.34,87.365z M396.55,103.575c0-4.53-3.68-8.21-8.21-8.21s-8.22,3.68-8.22,8.21
				c0,4.53,3.69,8.22,8.22,8.22S396.55,108.105,396.55,103.575z"/>
			<path d="M388.34,135.475c8.94,0,16.21,7.28,16.21,16.22c0,8.94-7.27,16.22-16.21,16.22c-8.95,0-16.22-7.28-16.22-16.22
				C372.12,142.755,379.39,135.475,388.34,135.475z M396.55,151.695c0-4.53-3.68-8.22-8.21-8.22s-8.22,3.69-8.22,8.22
				c0,4.53,3.69,8.22,8.22,8.22S396.55,156.225,396.55,151.695z"/>
			<path d="M388.34,183.595c8.94,0,16.21,7.28,16.21,16.22s-7.27,16.22-16.21,16.22c-8.95,0-16.22-7.28-16.22-16.22
				S379.39,183.595,388.34,183.595z M396.55,199.815c0-4.53-3.68-8.22-8.21-8.22s-8.22,3.69-8.22,8.22s3.69,8.22,8.22,8.22
				S396.55,204.345,396.55,199.815z"/>
			<path d="M388.34,231.715c8.94,0,16.21,7.28,16.21,16.22s-7.27,16.22-16.21,16.22c-8.95,0-16.22-7.28-16.22-16.22
				S379.39,231.715,388.34,231.715z M396.55,247.935c0-4.53-3.68-8.22-8.21-8.22s-8.22,3.69-8.22,8.22s3.69,8.22,8.22,8.22
				S396.55,252.465,396.55,247.935z"/>
			<path style="fill:#F9F1A5;" d="M388.34,47.245c4.53,0,8.21,3.68,8.21,8.21c0,4.54-3.68,8.22-8.21,8.22s-8.22-3.68-8.22-8.22
				C380.12,50.925,383.81,47.245,388.34,47.245z"/>
			<path style="fill:#F9F1A5;" d="M388.34,95.365c4.53,0,8.21,3.68,8.21,8.21c0,4.53-3.68,8.22-8.21,8.22s-8.22-3.69-8.22-8.22
				C380.12,99.045,383.81,95.365,388.34,95.365z"/>
			<path style="fill:#F9F1A5;" d="M388.34,143.475c4.53,0,8.21,3.69,8.21,8.22c0,4.53-3.68,8.22-8.21,8.22s-8.22-3.69-8.22-8.22
				C380.12,147.165,383.81,143.475,388.34,143.475z"/>
			<path style="fill:#F9F1A5;" d="M388.34,191.595c4.53,0,8.21,3.69,8.21,8.22s-3.68,8.22-8.21,8.22s-8.22-3.69-8.22-8.22
				S383.81,191.595,388.34,191.595z"/>
			<path style="fill:#F9F1A5;" d="M388.34,239.715c4.53,0,8.21,3.69,8.21,8.22s-3.68,8.22-8.21,8.22s-8.22-3.69-8.22-8.22
				S383.81,239.715,388.34,239.715z"/>
			<path style="fill:#CC71CA;" d="M389.68,348.615l-5.13,46.52c0,1.62-4.72,4.72-12.13,4.72c-7.4,0-12.13-3.1-12.13-4.72
				l-5.12-46.52H389.68z"/>
			<path style="fill:#F9F1A5;" d="M384.55,405.405v1.14c0,1.62-4.72,4.72-12.13,4.72c-7.4,0-12.13-3.1-12.13-4.72v-1.14
				c3.33,1.55,7.49,2.45,12.13,2.45C377.06,407.855,381.22,406.955,384.55,405.405z"/>
			<path d="M367.58,81.815v175.14c0,2.21-1.79,4-4,4H123.15c-2.21,0-4-1.79-4-4V81.815c0-2.21,1.79-4,4-4h240.43
				C365.79,77.815,367.58,79.605,367.58,81.815z M359.58,252.955v-10.51H127.15v10.51H359.58z M359.58,234.445V85.815H127.15v148.63
				H359.58z"/>
			<rect x="127.15" y="242.445" style="fill:#AF5BAF;" width="232.43" height="10.51"/>
			<path style="fill:#95D8EF;" d="M359.58,85.815v148.63H127.15V85.815H359.58z M351.52,125.395c1.56-1.56,1.56-4.1,0-5.66
				c-1.57-1.56-4.1-1.56-5.66,0l-97.37,97.37c-1.56,1.56-1.56,4.09,0,5.65c0.78,0.79,1.81,1.18,2.83,1.18
				c1.02,0,2.05-0.39,2.83-1.18L351.52,125.395z M245.26,96.885c1.57-1.56,1.57-4.09,0-5.66c-1.56-1.56-4.09-1.56-5.65,0
				l-106.63,106.63c-1.56,1.56-1.56,4.09,0,5.65c0.78,0.78,1.81,1.17,2.83,1.17c1.03,0,2.05-0.39,2.83-1.17L245.26,96.885z
				 M209.01,99.075c1.55-1.58,1.52-4.11-0.06-5.65c-1.58-1.55-4.11-1.52-5.66,0.06l-67.37,68.86c-1.55,1.58-1.52,4.11,0.06,5.65
				c0.77,0.76,1.78,1.14,2.79,1.14c1.04,0,2.08-0.4,2.86-1.2L209.01,99.075z"/>
			<path style="fill:#29ABE2;" d="M356.96,296.545v2.94c0,2.44-5.89,6.15-14.78,6.15c-8.89,0-14.78-3.71-14.78-6.15v-2.94
				c3.92,2.03,9.04,3.22,14.78,3.22C347.92,299.765,353.04,298.575,356.96,296.545z"/>
			<path style="fill:#F9F1A5;" d="M342.18,279.455c8.89,0,14.78,3.71,14.78,6.16c0,2.45-5.89,6.15-14.78,6.15
				c-8.89,0-14.78-3.7-14.78-6.15C327.4,283.165,333.29,279.455,342.18,279.455z"/>
			<path d="M351.52,119.735c1.56,1.56,1.56,4.1,0,5.66l-97.37,97.36c-0.78,0.79-1.81,1.18-2.83,1.18c-1.02,0-2.05-0.39-2.83-1.18
				c-1.56-1.56-1.56-4.09,0-5.65l97.37-97.37C347.42,118.175,349.95,118.175,351.52,119.735z"/>
			<path d="M339.68,39.245c8.94,0,16.22,7.27,16.22,16.21c0,8.95-7.28,16.22-16.22,16.22s-16.22-7.27-16.22-16.22
				C323.46,46.515,330.74,39.245,339.68,39.245z M347.9,55.455c0-4.53-3.69-8.21-8.22-8.21s-8.22,3.68-8.22,8.21
				c0,4.54,3.69,8.22,8.22,8.22S347.9,59.995,347.9,55.455z"/>
			<path style="fill:#F9F1A5;" d="M339.68,47.245c4.53,0,8.22,3.68,8.22,8.21c0,4.54-3.69,8.22-8.22,8.22s-8.22-3.68-8.22-8.22
				C331.46,50.925,335.15,47.245,339.68,47.245z"/>
			<path d="M334.53,323.395v96.89c0,2.21-1.79,4-4,4H137.86c-2.21,0-4-1.79-4-4v-96.89c0-2.21,1.79-4,4-4h192.67
				C332.74,319.395,334.53,321.185,334.53,323.395z M326.53,416.285v-2.67H141.86v2.67H326.53z M326.53,405.615v-78.22H141.86v78.22
				H326.53z"/>
			<rect x="141.86" y="413.615" style="fill:#808080;" width="184.67" height="2.67"/>
			<path style="fill:#B3B3B3;" d="M326.53,327.395v78.22H141.86v-78.22H326.53z M323.58,341.905c0-6.12-7.08-10.73-16.45-10.73
				c-9.38,0-16.45,4.61-16.45,10.73s7.07,10.73,16.45,10.73C316.5,352.635,323.58,348.025,323.58,341.905z M323.58,366.505
				c0-6.11-7.08-10.73-16.45-10.73c-9.38,0-16.45,4.62-16.45,10.73c0,6.12,7.07,10.73,16.45,10.73
				C316.5,377.235,323.58,372.625,323.58,366.505z M323.58,391.105c0-6.11-7.08-10.72-16.45-10.72c-9.38,0-16.45,4.61-16.45,10.72
				c0,6.12,7.07,10.73,16.45,10.73C316.5,401.835,323.58,397.225,323.58,391.105z M287.11,341.905c0-6.12-7.07-10.73-16.45-10.73
				s-16.45,4.61-16.45,10.73s7.07,10.73,16.45,10.73S287.11,348.025,287.11,341.905z M287.11,366.505c0-6.11-7.07-10.73-16.45-10.73
				s-16.45,4.62-16.45,10.73c0,6.12,7.07,10.73,16.45,10.73S287.11,372.625,287.11,366.505z M287.11,391.105
				c0-6.11-7.07-10.72-16.45-10.72s-16.45,4.61-16.45,10.72c0,6.12,7.07,10.73,16.45,10.73S287.11,397.225,287.11,391.105z
				 M250.64,341.905c0-6.12-7.07-10.73-16.45-10.73c-9.37,0-16.45,4.61-16.45,10.73s7.08,10.73,16.45,10.73
				C243.57,352.635,250.64,348.025,250.64,341.905z M250.64,366.505c0-6.11-7.07-10.73-16.45-10.73c-9.37,0-16.45,4.62-16.45,10.73
				c0,6.12,7.08,10.73,16.45,10.73C243.57,377.235,250.64,372.625,250.64,366.505z M250.64,391.105c0-6.11-7.07-10.72-16.45-10.72
				c-9.37,0-16.45,4.61-16.45,10.72c0,6.12,7.08,10.73,16.45,10.73C243.57,401.835,250.64,397.225,250.64,391.105z M214.18,341.905
				c0-6.12-7.08-10.73-16.45-10.73c-9.38,0-16.45,4.61-16.45,10.73s7.07,10.73,16.45,10.73
				C207.1,352.635,214.18,348.025,214.18,341.905z M214.18,366.505c0-6.11-7.08-10.73-16.45-10.73c-9.38,0-16.45,4.62-16.45,10.73
				c0,6.12,7.07,10.73,16.45,10.73C207.1,377.235,214.18,372.625,214.18,366.505z M214.18,391.105c0-6.11-7.08-10.72-16.45-10.72
				c-9.38,0-16.45,4.61-16.45,10.72c0,6.12,7.07,10.73,16.45,10.73C207.1,401.835,214.18,397.225,214.18,391.105z M177.71,341.905
				c0-6.12-7.07-10.73-16.45-10.73c-9.38,0-16.45,4.61-16.45,10.73s7.07,10.73,16.45,10.73
				C170.64,352.635,177.71,348.025,177.71,341.905z M177.71,366.505c0-6.11-7.07-10.73-16.45-10.73c-9.38,0-16.45,4.62-16.45,10.73
				c0,6.12,7.07,10.73,16.45,10.73C170.64,377.235,177.71,372.625,177.71,366.505z M177.71,391.105c0-6.11-7.07-10.72-16.45-10.72
				c-9.38,0-16.45,4.61-16.45,10.72c0,6.12,7.07,10.73,16.45,10.73C170.64,401.835,177.71,397.225,177.71,391.105z"/>
			<path d="M307.13,331.175c9.37,0,16.45,4.61,16.45,10.73s-7.08,10.73-16.45,10.73c-9.38,0-16.45-4.61-16.45-10.73
				S297.75,331.175,307.13,331.175z M315.56,341.905c-0.38-0.81-3.32-2.73-8.43-2.73c-5.11,0-8.06,1.92-8.43,2.73
				c0.37,0.81,3.32,2.73,8.43,2.73C312.24,344.635,315.18,342.715,315.56,341.905z"/>
			<path d="M307.13,355.775c9.37,0,16.45,4.62,16.45,10.73c0,6.12-7.08,10.73-16.45,10.73c-9.38,0-16.45-4.61-16.45-10.73
				C290.68,360.395,297.75,355.775,307.13,355.775z M315.56,366.505c-0.38-0.81-3.32-2.73-8.43-2.73c-5.11,0-8.06,1.92-8.43,2.73
				c0.37,0.81,3.32,2.73,8.43,2.73C312.24,369.235,315.18,367.315,315.56,366.505z"/>
			<path d="M307.13,380.385c9.37,0,16.45,4.61,16.45,10.72c0,6.12-7.08,10.73-16.45,10.73c-9.38,0-16.45-4.61-16.45-10.73
				C290.68,384.995,297.75,380.385,307.13,380.385z M315.56,391.105c-0.38-0.81-3.32-2.72-8.43-2.72c-5.11,0-8.06,1.91-8.43,2.72
				c0.37,0.82,3.32,2.73,8.43,2.73C312.24,393.835,315.18,391.925,315.56,391.105z"/>
			<path style="fill:#29ABE2;" d="M307.13,339.175c5.11,0,8.05,1.92,8.43,2.73c-0.38,0.81-3.32,2.73-8.43,2.73
				c-5.11,0-8.06-1.92-8.43-2.73C299.07,341.095,302.02,339.175,307.13,339.175z"/>
			<path style="fill:#CC71CA;" d="M307.13,363.775c5.11,0,8.05,1.92,8.43,2.73c-0.38,0.81-3.32,2.73-8.43,2.73
				c-5.11,0-8.06-1.92-8.43-2.73C299.07,365.695,302.02,363.775,307.13,363.775z"/>
			<path style="fill:#F9F1A5;" d="M307.13,388.385c5.11,0,8.05,1.91,8.43,2.72c-0.38,0.82-3.32,2.73-8.43,2.73
				c-5.11,0-8.06-1.91-8.43-2.73C299.07,390.295,302.02,388.385,307.13,388.385z"/>
			<path d="M312.63,293.705v12.15c0,7.35-8.79,12.89-20.45,12.89s-20.45-5.54-20.45-12.89v-12.15c0-7.35,8.79-12.89,20.45-12.89
				S312.63,286.355,312.63,293.705z M304.63,305.855v-1.8c-3.4,1.6-7.68,2.54-12.45,2.54c-4.77,0-9.05-0.94-12.45-2.54v1.8
				c0,1.72,4.72,4.89,12.45,4.89C299.9,310.745,304.63,307.575,304.63,305.855z M304.63,293.705c0-1.73-4.73-4.89-12.45-4.89
				c-7.73,0-12.45,3.16-12.45,4.89c0,1.72,4.72,4.89,12.45,4.89C299.9,298.595,304.63,295.425,304.63,293.705z"/>
			<path style="fill:#29ABE2;" d="M304.63,304.055v1.8c0,1.72-4.73,4.89-12.45,4.89c-7.73,0-12.45-3.17-12.45-4.89v-1.8
				c3.4,1.6,7.68,2.54,12.45,2.54C296.95,306.595,301.23,305.655,304.63,304.055z"/>
			<path d="M291.56,39.245c8.94,0,16.22,7.27,16.22,16.21c0,8.95-7.28,16.22-16.22,16.22s-16.22-7.27-16.22-16.22
				C275.34,46.515,282.62,39.245,291.56,39.245z M299.78,55.455c0-4.53-3.69-8.21-8.22-8.21s-8.22,3.68-8.22,8.21
				c0,4.54,3.69,8.22,8.22,8.22S299.78,59.995,299.78,55.455z"/>
			<path style="fill:#F9F1A5;" d="M292.18,288.815c7.72,0,12.45,3.16,12.45,4.89c0,1.72-4.73,4.89-12.45,4.89
				c-7.73,0-12.45-3.17-12.45-4.89C279.73,291.975,284.45,288.815,292.18,288.815z"/>
			<path style="fill:#F9F1A5;" d="M291.56,47.245c4.53,0,8.22,3.68,8.22,8.21c0,4.54-3.69,8.22-8.22,8.22s-8.22-3.68-8.22-8.22
				C283.34,50.925,287.03,47.245,291.56,47.245z"/>
			<path d="M270.66,331.175c9.38,0,16.45,4.61,16.45,10.73s-7.07,10.73-16.45,10.73s-16.45-4.61-16.45-10.73
				S261.28,331.175,270.66,331.175z M279.09,341.905c-0.38-0.81-3.32-2.73-8.43-2.73c-5.11,0-8.05,1.92-8.43,2.73
				c0.38,0.81,3.32,2.73,8.43,2.73C275.77,344.635,278.71,342.715,279.09,341.905z"/>
			<path d="M270.66,355.775c9.38,0,16.45,4.62,16.45,10.73c0,6.12-7.07,10.73-16.45,10.73s-16.45-4.61-16.45-10.73
				C254.21,360.395,261.28,355.775,270.66,355.775z M279.09,366.505c-0.38-0.81-3.32-2.73-8.43-2.73c-5.11,0-8.05,1.92-8.43,2.73
				c0.38,0.81,3.32,2.73,8.43,2.73C275.77,369.235,278.71,367.315,279.09,366.505z"/>
			<path d="M270.66,380.385c9.38,0,16.45,4.61,16.45,10.72c0,6.12-7.07,10.73-16.45,10.73s-16.45-4.61-16.45-10.73
				C254.21,384.995,261.28,380.385,270.66,380.385z M279.09,391.105c-0.38-0.81-3.32-2.72-8.43-2.72c-5.11,0-8.05,1.91-8.43,2.72
				c0.38,0.82,3.32,2.73,8.43,2.73C275.77,393.835,278.71,391.925,279.09,391.105z"/>
			<path style="fill:#CC71CA;" d="M270.66,339.175c5.11,0,8.05,1.92,8.43,2.73c-0.38,0.81-3.32,2.73-8.43,2.73
				c-5.11,0-8.05-1.92-8.43-2.73C262.61,341.095,265.55,339.175,270.66,339.175z"/>
			<path style="fill:#F9F1A5;" d="M270.66,363.775c5.11,0,8.05,1.92,8.43,2.73c-0.38,0.81-3.32,2.73-8.43,2.73
				c-5.11,0-8.05-1.92-8.43-2.73C262.61,365.695,265.55,363.775,270.66,363.775z"/>
			<path style="fill:#29ABE2;" d="M270.66,388.385c5.11,0,8.05,1.91,8.43,2.72c-0.38,0.82-3.32,2.73-8.43,2.73
				c-5.11,0-8.05-1.91-8.43-2.73C262.61,390.295,265.55,388.385,270.66,388.385z"/>
			<path style="fill:#29ABE2;" d="M257.82,294.705v1.8c0,1.72-4.73,4.89-12.46,4.89c-7.72,0-12.45-3.17-12.45-4.89v-1.8
				c3.41,1.6,7.68,2.54,12.45,2.54C250.14,297.245,254.41,296.305,257.82,294.705z"/>
			<path d="M243.44,39.245c8.94,0,16.22,7.27,16.22,16.21c0,8.95-7.28,16.22-16.22,16.22s-16.22-7.27-16.22-16.22
				C227.22,46.515,234.5,39.245,243.44,39.245z M251.66,55.455c0-4.53-3.69-8.21-8.22-8.21s-8.22,3.68-8.22,8.21
				c0,4.54,3.69,8.22,8.22,8.22S251.66,59.995,251.66,55.455z"/>
			<path style="fill:#F9F1A5;" d="M245.36,279.455c7.73,0,12.46,3.17,12.46,4.9c0,1.72-4.73,4.89-12.46,4.89
				c-7.72,0-12.45-3.17-12.45-4.89C232.91,282.625,237.64,279.455,245.36,279.455z"/>
			<path style="fill:#F9F1A5;" d="M243.44,47.245c4.53,0,8.22,3.68,8.22,8.21c0,4.54-3.69,8.22-8.22,8.22s-8.22-3.68-8.22-8.22
				C235.22,50.925,238.91,47.245,243.44,47.245z"/>
			<path d="M234.19,331.175c9.38,0,16.45,4.61,16.45,10.73s-7.07,10.73-16.45,10.73c-9.37,0-16.45-4.61-16.45-10.73
				S224.82,331.175,234.19,331.175z M242.62,341.905c-0.37-0.81-3.32-2.73-8.43-2.73s-8.05,1.92-8.43,2.73
				c0.38,0.81,3.32,2.73,8.43,2.73S242.25,342.715,242.62,341.905z"/>
			<path d="M234.19,355.775c9.38,0,16.45,4.62,16.45,10.73c0,6.12-7.07,10.73-16.45,10.73c-9.37,0-16.45-4.61-16.45-10.73
				C217.74,360.395,224.82,355.775,234.19,355.775z M242.62,366.505c-0.37-0.81-3.32-2.73-8.43-2.73s-8.05,1.92-8.43,2.73
				c0.38,0.81,3.32,2.73,8.43,2.73S242.25,367.315,242.62,366.505z"/>
			<path d="M234.19,380.385c9.38,0,16.45,4.61,16.45,10.72c0,6.12-7.07,10.73-16.45,10.73c-9.37,0-16.45-4.61-16.45-10.73
				C217.74,384.995,224.82,380.385,234.19,380.385z M242.62,391.105c-0.37-0.81-3.32-2.72-8.43-2.72s-8.05,1.91-8.43,2.72
				c0.38,0.82,3.32,2.73,8.43,2.73S242.25,391.925,242.62,391.105z"/>
			<path d="M245.26,91.225c1.57,1.57,1.57,4.1,0,5.66l-106.62,106.62c-0.78,0.78-1.8,1.17-2.83,1.17c-1.02,0-2.05-0.39-2.83-1.17
				c-1.56-1.56-1.56-4.09,0-5.65l106.63-106.63C241.17,89.665,243.7,89.665,245.26,91.225z"/>
			<path style="fill:#F9F1A5;" d="M234.19,339.175c5.11,0,8.06,1.92,8.43,2.73c-0.37,0.81-3.32,2.73-8.43,2.73s-8.05-1.92-8.43-2.73
				C226.14,341.095,229.08,339.175,234.19,339.175z"/>
			<path style="fill:#29ABE2;" d="M234.19,363.775c5.11,0,8.06,1.92,8.43,2.73c-0.37,0.81-3.32,2.73-8.43,2.73s-8.05-1.92-8.43-2.73
				C226.14,365.695,229.08,363.775,234.19,363.775z"/>
			<path style="fill:#CC71CA;" d="M234.19,388.385c5.11,0,8.06,1.91,8.43,2.72c-0.37,0.82-3.32,2.73-8.43,2.73s-8.05-1.91-8.43-2.73
				C226.14,390.295,229.08,388.385,234.19,388.385z"/>
			<path d="M197.73,331.175c9.37,0,16.45,4.61,16.45,10.73s-7.08,10.73-16.45,10.73c-9.38,0-16.45-4.61-16.45-10.73
				S188.35,331.175,197.73,331.175z M206.16,341.905c-0.38-0.81-3.32-2.73-8.43-2.73s-8.06,1.92-8.43,2.73
				c0.37,0.81,3.32,2.73,8.43,2.73S205.78,342.715,206.16,341.905z"/>
			<path d="M197.73,355.775c9.37,0,16.45,4.62,16.45,10.73c0,6.12-7.08,10.73-16.45,10.73c-9.38,0-16.45-4.61-16.45-10.73
				C181.28,360.395,188.35,355.775,197.73,355.775z M206.16,366.505c-0.38-0.81-3.32-2.73-8.43-2.73s-8.06,1.92-8.43,2.73
				c0.37,0.81,3.32,2.73,8.43,2.73S205.78,367.315,206.16,366.505z"/>
			<path d="M197.73,380.385c9.37,0,16.45,4.61,16.45,10.72c0,6.12-7.08,10.73-16.45,10.73c-9.38,0-16.45-4.61-16.45-10.73
				C181.28,384.995,188.35,380.385,197.73,380.385z M206.16,391.105c-0.38-0.81-3.32-2.72-8.43-2.72s-8.06,1.91-8.43,2.72
				c0.37,0.82,3.32,2.73,8.43,2.73S205.78,391.925,206.16,391.105z"/>
			<path d="M208.95,93.425c1.58,1.54,1.61,4.07,0.06,5.65l-67.38,68.86c-0.78,0.8-1.82,1.2-2.86,1.2c-1.01,0-2.02-0.38-2.79-1.14
				c-1.58-1.54-1.61-4.07-0.06-5.65l67.37-68.86C204.84,91.905,207.37,91.875,208.95,93.425z"/>
			<path d="M195.32,39.245c8.94,0,16.22,7.27,16.22,16.21c0,8.95-7.28,16.22-16.22,16.22c-8.94,0-16.21-7.27-16.21-16.22
				C179.11,46.515,186.38,39.245,195.32,39.245z M203.54,55.455c0-4.53-3.69-8.21-8.22-8.21c-4.53,0-8.21,3.68-8.21,8.21
				c0,4.54,3.68,8.22,8.21,8.22C199.85,63.675,203.54,59.995,203.54,55.455z"/>
			<path style="fill:#29ABE2;" d="M206.88,293.265v4.74c0,3.29-7.14,8.06-18.32,8.06c-11.18,0-18.32-4.77-18.32-8.06v-4.74
				c4.67,2.71,11.06,4.33,18.32,4.33C195.82,297.595,202.21,295.975,206.88,293.265z"/>
			<path style="fill:#29ABE2;" d="M197.73,339.175c5.11,0,8.05,1.92,8.43,2.73c-0.38,0.81-3.32,2.73-8.43,2.73s-8.06-1.92-8.43-2.73
				C189.67,341.095,192.62,339.175,197.73,339.175z"/>
			<path style="fill:#CC71CA;" d="M197.73,363.775c5.11,0,8.05,1.92,8.43,2.73c-0.38,0.81-3.32,2.73-8.43,2.73s-8.06-1.92-8.43-2.73
				C189.67,365.695,192.62,363.775,197.73,363.775z"/>
			<path style="fill:#29ABE2;" d="M197.73,388.385c5.11,0,8.05,1.91,8.43,2.72c-0.38,0.82-3.32,2.73-8.43,2.73s-8.06-1.91-8.43-2.73
				C189.67,390.295,192.62,388.385,197.73,388.385z"/>
			<path style="fill:#F9F1A5;" d="M188.56,273.465c11.18,0,18.32,4.78,18.32,8.07c0,4.92-10.85,8.06-18.32,8.06
				s-18.32-3.14-18.32-8.06C170.24,278.245,177.38,273.465,188.56,273.465z"/>
			<path style="fill:#F9F1A5;" d="M195.32,47.245c4.53,0,8.22,3.68,8.22,8.21c0,4.54-3.69,8.22-8.22,8.22
				c-4.53,0-8.21-3.68-8.21-8.22C187.11,50.925,190.79,47.245,195.32,47.245z"/>
			<path d="M161.26,331.175c9.38,0,16.45,4.61,16.45,10.73s-7.07,10.73-16.45,10.73c-9.38,0-16.45-4.61-16.45-10.73
				S151.88,331.175,161.26,331.175z M169.69,341.905c-0.37-0.81-3.32-2.73-8.43-2.73s-8.05,1.92-8.43,2.73
				c0.38,0.81,3.32,2.73,8.43,2.73S169.32,342.715,169.69,341.905z"/>
			<path d="M161.26,355.775c9.38,0,16.45,4.62,16.45,10.73c0,6.12-7.07,10.73-16.45,10.73c-9.38,0-16.45-4.61-16.45-10.73
				C144.81,360.395,151.88,355.775,161.26,355.775z M169.69,366.505c-0.37-0.81-3.32-2.73-8.43-2.73s-8.05,1.92-8.43,2.73
				c0.38,0.81,3.32,2.73,8.43,2.73S169.32,367.315,169.69,366.505z"/>
			<path d="M161.26,380.385c9.38,0,16.45,4.61,16.45,10.72c0,6.12-7.07,10.73-16.45,10.73c-9.38,0-16.45-4.61-16.45-10.73
				C144.81,384.995,151.88,380.385,161.26,380.385z M169.69,391.105c-0.37-0.81-3.32-2.72-8.43-2.72s-8.05,1.91-8.43,2.72
				c0.38,0.82,3.32,2.73,8.43,2.73S169.32,391.925,169.69,391.105z"/>
			<path style="fill:#AF5BAF;" d="M161.26,339.175c5.11,0,8.06,1.92,8.43,2.73c-0.37,0.81-3.32,2.73-8.43,2.73s-8.05-1.92-8.43-2.73
				C153.21,341.095,156.15,339.175,161.26,339.175z"/>
			<path style="fill:#29ABE2;" d="M161.26,363.775c5.11,0,8.06,1.92,8.43,2.73c-0.37,0.81-3.32,2.73-8.43,2.73s-8.05-1.92-8.43-2.73
				C153.21,365.695,156.15,363.775,161.26,363.775z"/>
			<path style="fill:#F9F1A5;" d="M161.26,388.385c5.11,0,8.06,1.91,8.43,2.72c-0.37,0.82-3.32,2.73-8.43,2.73s-8.05-1.91-8.43-2.73
				C153.21,390.295,156.15,388.385,161.26,388.385z"/>
			<path d="M147.2,39.245c8.95,0,16.22,7.27,16.22,16.21c0,8.95-7.27,16.22-16.22,16.22c-8.94,0-16.21-7.27-16.21-16.22
				C130.99,46.515,138.26,39.245,147.2,39.245z M155.42,55.455c0-4.53-3.69-8.21-8.22-8.21s-8.21,3.68-8.21,8.21
				c0,4.54,3.68,8.22,8.21,8.22S155.42,59.995,155.42,55.455z"/>
			<path style="fill:#F9F1A5;" d="M147.2,47.245c4.53,0,8.22,3.68,8.22,8.21c0,4.54-3.69,8.22-8.22,8.22s-8.21-3.68-8.21-8.22
				C138.99,50.925,142.67,47.245,147.2,47.245z"/>
			<path d="M129.5,296.975v16.48c0,7.05-6.89,12.88-17.11,15.1c0.3,1.01,0.46,2.05,0.46,3.13v16.47c0,0.08-0.01,0.15-0.01,0.23
				c4.18,1.49,6.9,4.44,6.9,7.99v49.04c0,5.16-5.72,9.04-13.32,9.04c-7.59,0-13.31-3.88-13.31-9.04v-41.68
				c-2.13,0.32-4.32,0.49-6.58,0.49c-15,0-26.31-6.9-26.31-16.07v-8.43c-3.73,1.16-7.96,1.79-12.37,1.79
				c-15,0-26.32-6.9-26.32-16.06c0,0,0.01-16.47,0.01-16.48c0-9.15,11.31-16.06,26.31-16.06c15.01,0,26.32,6.91,26.32,16.06v8.41
				c1.02-0.31,2.08-0.59,3.18-0.83c-0.3-1.01-0.48-2.04-0.48-3.1c0,0,0-16.46,0-16.48c0-9.15,11.31-16.06,26.32-16.06
				C118.19,280.915,129.5,287.825,129.5,296.975z M121.5,313.455v-4.74c-4.66,2.71-11.05,4.33-18.31,4.33
				c-7.26,0-13.65-1.62-18.32-4.33v4.74c0,0.8,0.38,1.54,0.87,2.18c0.27,0,0.53-0.01,0.8-0.01c8.42,0,15.67,2.17,20.42,5.7
				C115.6,320.435,121.5,316.605,121.5,313.455z M121.5,296.975c0-3.28-7.13-8.06-18.31-8.06c-7.47,0-18.32,3.14-18.32,8.06
				c0,4.93,10.85,8.07,18.32,8.07C110.65,305.045,121.5,301.905,121.5,296.975z M111.74,405.045v-23.32
				c-1.61,0.45-3.41,0.69-5.32,0.69c-1.91,0-3.7-0.24-5.31-0.69v23.32c0.52,0.47,2.34,1.41,5.31,1.41
				C109.4,406.455,111.22,405.515,111.74,405.045z M111.74,372.995v-16.24c-0.52-0.47-2.34-1.42-5.32-1.42
				c-2.97,0-4.79,0.95-5.31,1.42v16.24c0.5,0.47,2.31,1.42,5.31,1.42C109.43,374.415,111.24,373.465,111.74,372.995z
				 M104.85,347.395v-3.97c-4.66,2.7-11.05,4.32-18.31,4.32s-13.65-1.62-18.32-4.32v4.73c0,4.93,10.85,8.07,18.31,8.07
				c2.28,0,4.52-0.22,6.63-0.62C93.66,351.195,98.43,347.865,104.85,347.395z M104.85,331.685c0-3.29-7.13-8.06-18.31-8.06
				s-18.32,4.77-18.32,8.06c0,4.92,10.85,8.06,18.32,8.06C94,339.745,104.85,336.605,104.85,331.685z M66.17,321.285v-0.57
				c-4.66,2.71-11.06,4.33-18.32,4.33s-13.65-1.63-18.32-4.33v4.74c0,3.29,7.14,8.06,18.32,8.06c4.58,0,8.95-0.84,12.39-2.34
				C60.42,327.345,62.58,323.925,66.17,321.285z M66.17,308.975c0-3.28-7.14-8.06-18.32-8.06s-18.31,4.78-18.31,8.06
				c0,4.93,10.85,8.07,18.31,8.07C55.32,317.045,66.17,313.905,66.17,308.975z"/>
			<path style="fill:#CC71CA;" d="M121.5,308.715v4.74c0,3.15-5.9,6.98-14.54,7.87c-4.75-3.53-12-5.7-20.42-5.7
				c-0.27,0-0.53,0.01-0.8,0.01c-0.49-0.64-0.87-1.38-0.87-2.18v-4.74c4.67,2.71,11.06,4.33,18.32,4.33
				C110.45,313.045,116.84,311.425,121.5,308.715z"/>
			<path style="fill:#F9F1A5;" d="M103.19,288.915c11.18,0,18.31,4.78,18.31,8.06c0,4.93-10.85,8.07-18.31,8.07
				c-7.47,0-18.32-3.14-18.32-8.07C84.87,292.055,95.72,288.915,103.19,288.915z"/>
			<path style="fill:#F9F1A5;" d="M111.74,381.725v23.32c-0.52,0.47-2.34,1.41-5.32,1.41c-2.97,0-4.79-0.94-5.31-1.41v-23.32
				c1.61,0.45,3.4,0.69,5.31,0.69C108.33,382.415,110.13,382.175,111.74,381.725z"/>
			<path style="fill:#CC71CA;" d="M111.74,356.755v16.24c-0.5,0.47-2.31,1.42-5.32,1.42c-3,0-4.81-0.95-5.31-1.42v-16.24
				c0.52-0.47,2.34-1.42,5.31-1.42C109.4,355.335,111.22,356.285,111.74,356.755z"/>
			<path d="M98.38,39.245c8.94,0,16.22,7.27,16.22,16.21c0,8.95-7.28,16.22-16.22,16.22s-16.22-7.27-16.22-16.22
				C82.16,46.515,89.44,39.245,98.38,39.245z M106.6,55.455c0-4.53-3.69-8.21-8.22-8.21c-4.53,0-8.22,3.68-8.22,8.21
				c0,4.54,3.69,8.22,8.22,8.22C102.91,63.675,106.6,59.995,106.6,55.455z"/>
			<path d="M98.38,87.365c8.94,0,16.22,7.27,16.22,16.21c0,8.95-7.28,16.22-16.22,16.22s-16.22-7.27-16.22-16.22
				C82.16,94.635,89.44,87.365,98.38,87.365z M106.6,103.575c0-4.53-3.69-8.21-8.22-8.21c-4.53,0-8.22,3.68-8.22,8.21
				c0,4.53,3.69,8.22,8.22,8.22C102.91,111.795,106.6,108.105,106.6,103.575z"/>
			<path d="M98.38,135.475c8.94,0,16.22,7.28,16.22,16.22c0,8.94-7.28,16.22-16.22,16.22s-16.22-7.28-16.22-16.22
				C82.16,142.755,89.44,135.475,98.38,135.475z M106.6,151.695c0-4.53-3.69-8.22-8.22-8.22c-4.53,0-8.22,3.69-8.22,8.22
				c0,4.53,3.69,8.22,8.22,8.22C102.91,159.915,106.6,156.225,106.6,151.695z"/>
			<path d="M98.38,183.595c8.94,0,16.22,7.28,16.22,16.22s-7.28,16.22-16.22,16.22s-16.22-7.28-16.22-16.22
				S89.44,183.595,98.38,183.595z M106.6,199.815c0-4.53-3.69-8.22-8.22-8.22c-4.53,0-8.22,3.69-8.22,8.22s3.69,8.22,8.22,8.22
				C102.91,208.035,106.6,204.345,106.6,199.815z"/>
			<path d="M98.38,231.715c8.94,0,16.22,7.28,16.22,16.22s-7.28,16.22-16.22,16.22s-16.22-7.28-16.22-16.22
				S89.44,231.715,98.38,231.715z M106.6,247.935c0-4.53-3.69-8.22-8.22-8.22c-4.53,0-8.22,3.69-8.22,8.22s3.69,8.22,8.22,8.22
				C102.91,256.155,106.6,252.465,106.6,247.935z"/>
			<path style="fill:#F9F1A5;" d="M104.85,343.425v3.97c-6.42,0.47-11.19,3.8-11.69,8.21c-2.11,0.4-4.35,0.62-6.63,0.62
				c-7.46,0-18.31-3.14-18.31-8.07v-4.73c4.67,2.7,11.06,4.32,18.32,4.32S100.19,346.125,104.85,343.425z"/>
			<path style="fill:#F9F1A5;" d="M98.38,47.245c4.53,0,8.22,3.68,8.22,8.21c0,4.54-3.69,8.22-8.22,8.22
				c-4.53,0-8.22-3.68-8.22-8.22C90.16,50.925,93.85,47.245,98.38,47.245z"/>
			<path style="fill:#F9F1A5;" d="M98.38,95.365c4.53,0,8.22,3.68,8.22,8.21c0,4.53-3.69,8.22-8.22,8.22
				c-4.53,0-8.22-3.69-8.22-8.22C90.16,99.045,93.85,95.365,98.38,95.365z"/>
			<path style="fill:#F9F1A5;" d="M98.38,143.475c4.53,0,8.22,3.69,8.22,8.22c0,4.53-3.69,8.22-8.22,8.22
				c-4.53,0-8.22-3.69-8.22-8.22C90.16,147.165,93.85,143.475,98.38,143.475z"/>
			<path style="fill:#F9F1A5;" d="M98.38,191.595c4.53,0,8.22,3.69,8.22,8.22s-3.69,8.22-8.22,8.22c-4.53,0-8.22-3.69-8.22-8.22
				S93.85,191.595,98.38,191.595z"/>
			<path style="fill:#F9F1A5;" d="M98.38,239.715c4.53,0,8.22,3.69,8.22,8.22s-3.69,8.22-8.22,8.22c-4.53,0-8.22-3.69-8.22-8.22
				S93.85,239.715,98.38,239.715z"/>
			<path style="fill:#29ABE2;" d="M86.54,323.625c11.18,0,18.31,4.77,18.31,8.06c0,4.92-10.85,8.06-18.31,8.06
				c-7.47,0-18.32-3.14-18.32-8.06C68.22,328.395,75.36,323.625,86.54,323.625z"/>
			<path style="fill:#29ABE2;" d="M66.17,320.715v0.57c-3.59,2.64-5.75,6.06-5.93,9.89c-3.44,1.5-7.81,2.34-12.39,2.34
				c-11.18,0-18.32-4.77-18.32-8.06v-4.74c4.67,2.7,11.06,4.33,18.32,4.33S61.51,323.425,66.17,320.715z"/>
			<path d="M63.81,364.245v49.04c0,5.15-5.72,9.04-13.31,9.04c-7.6,0-13.32-3.89-13.32-9.04v-4.99c-1.62,0.45-3.41,0.69-5.32,0.69
				c-7.59,0-13.32-3.88-13.32-9.03v-49.05c0-5.15,5.73-9.03,13.32-9.03s13.32,3.88,13.32,9.03v5c1.61-0.45,3.4-0.7,5.32-0.7
				C58.09,355.205,63.81,359.095,63.81,364.245z M55.81,412.905v-23.32c-1.61,0.45-3.4,0.7-5.31,0.7c-1.92,0-3.71-0.25-5.32-0.7
				v10.37v12.95c0.52,0.48,2.34,1.42,5.32,1.42C53.47,414.325,55.29,413.385,55.81,412.905z M55.81,380.865v-16.24
				c-0.52-0.48-2.34-1.42-5.31-1.42c-2.98,0-4.8,0.94-5.32,1.42v16.24c0.5,0.47,2.31,1.42,5.32,1.42
				C53.5,382.285,55.31,381.335,55.81,380.865z M37.18,399.575v-23.34c-1.62,0.46-3.4,0.72-5.32,0.72s-3.7-0.26-5.32-0.72v23.34
				c0.53,0.47,2.34,1.41,5.32,1.41S36.65,400.045,37.18,399.575z M37.18,367.525v-3.28v-12.96c-0.53-0.47-2.34-1.41-5.32-1.41
				s-4.79,0.94-5.32,1.41v16.24c0.51,0.47,2.31,1.43,5.32,1.43S36.67,367.995,37.18,367.525z"/>
			<path style="fill:#CC71CA;" d="M47.85,300.915c11.18,0,18.32,4.78,18.32,8.06c0,4.93-10.85,8.07-18.32,8.07
				c-7.46,0-18.31-3.14-18.31-8.07C29.54,305.695,36.67,300.915,47.85,300.915z"/>
			<path style="fill:#F9F1A5;" d="M59.56,212.865v59c0,4.33-8.7,9.17-20.36,9.17c-11.65,0-20.36-4.84-20.36-9.17v-59
				c0-2.33,2.63-4.8,6.67-6.57v0.6c0,5.26,5.89,9.24,13.69,9.24c7.81,0,13.7-3.98,13.7-9.24v-0.6
				C56.94,208.065,59.56,210.535,59.56,212.865z"/>
			<path style="fill:#CC71CA;" d="M59.56,153.285v47.45c-1.92-1.17-4.15-2.18-6.66-2.98v-9.13c0-5.27-5.89-9.24-13.7-9.24
				c-7.8,0-13.69,3.97-13.69,9.24v9.12c-2.51,0.81-4.74,1.82-6.67,2.99v-47.45c0-2.32,2.63-4.79,6.67-6.57v0.61
				c0,5.26,5.89,9.24,13.69,9.24c7.81,0,13.7-3.98,13.7-9.24v-0.6C56.94,148.495,59.56,150.965,59.56,153.285z"/>
			<path style="fill:#29ABE2;" d="M59.56,99.595v41.57c-1.92-1.18-4.15-2.18-6.66-2.99v-9.12c0-5.27-5.89-9.24-13.7-9.24
				c-7.8,0-13.69,3.97-13.69,9.24v9.12c-2.51,0.8-4.74,1.81-6.67,2.99v-41.57c0-2.32,2.63-4.79,6.67-6.57v0.6
				c0,5.27,5.89,9.24,13.69,9.24c7.81,0,13.7-3.97,13.7-9.24v-0.59C56.94,94.805,59.56,97.275,59.56,99.595z"/>
			<path style="fill:#F9F1A5;" d="M55.81,389.585v23.32c-0.52,0.48-2.34,1.42-5.31,1.42c-2.98,0-4.8-0.94-5.32-1.42v-12.95v-10.37
				c1.61,0.45,3.4,0.7,5.32,0.7C52.41,390.285,54.2,390.035,55.81,389.585z"/>
			<path style="fill:#29ABE2;" d="M55.81,364.625v16.24c-0.5,0.47-2.31,1.42-5.31,1.42c-3.01,0-4.82-0.95-5.32-1.42v-16.24
				c0.52-0.48,2.34-1.42,5.32-1.42C53.47,363.205,55.29,364.145,55.81,364.625z"/>
			<path style="fill:#29ABE2;" d="M44.9,188.945v17.62c-0.51,0.51-2.44,1.57-5.7,1.57c-3.25,0-5.18-1.06-5.69-1.57v-17.62
				c0.51-0.5,2.44-1.56,5.69-1.56C42.46,187.385,44.39,188.445,44.9,188.945z"/>
			<path style="fill:#F9F1A5;" d="M44.9,129.375v17.62c-0.51,0.51-2.44,1.57-5.7,1.57c-3.25,0-5.18-1.06-5.69-1.57v-17.62
				c0.51-0.51,2.44-1.56,5.69-1.56C42.46,127.815,44.39,128.865,44.9,129.375z"/>
			<path style="fill:#E8653D;" d="M44.9,75.675v17.63c-0.51,0.5-2.44,1.56-5.7,1.56c-3.25,0-5.18-1.06-5.69-1.56v-17.63
				c0.51-0.5,2.44-1.56,5.69-1.56C42.46,74.115,44.39,75.175,44.9,75.675z"/>
			<path style="fill:#CC71CA;" d="M37.18,376.235v23.34c-0.53,0.47-2.34,1.41-5.32,1.41s-4.79-0.94-5.32-1.41v-23.34
				c1.62,0.46,3.4,0.72,5.32,0.72S35.56,376.695,37.18,376.235z"/>
			<path style="fill:#F9F1A5;" d="M37.18,364.245v3.28c-0.51,0.47-2.31,1.43-5.32,1.43s-4.81-0.96-5.32-1.43v-16.24
				c0.53-0.47,2.34-1.41,5.32-1.41s4.79,0.94,5.32,1.41V364.245z"/>
		</g>
		<g>
		</g>
	</g>
</g>
<g>
</g>
<g>
</g>
<g>
</g>
<g>
</g>
<g>
</g>
<g>
</g>
<g>
</g>
<g>
</g>
<g>
</g>
<g>
</g>
<g>
</g>
<g>
</g>
<g>
</g>
<g>
</g>
<g>
</g>
</svg>
